<?xml version="1.0" standalone="no"?>
<!DOCTYPE svg PUBLIC "-//W3C//DTD SVG 20010904//EN"
 "http://www.w3.org/TR/2001/REC-SVG-20010904/DTD/svg10.dtd">
 
<svg version="1.0" xmlns="http://www.w3.org/2000/svg"
 width="15%" viewBox="0 0 196.000000 76.000000"
 preserveAspectRatio="xMidYMid meet">
<metadata>
Created by potrace 1.15, written by Peter Selinger 2001-2017
</metadata>
<g transform="translate(0.000000,76.000000) scale(0.100000,-0.100000)"
fill="#000000" stroke="none">

<path d="M39 701 l-29 -29 0 -292 0 -292 29 -29 29 -29 912 0 912 0 29 29 29
29 0 292 0 292 -29 29 -29 29 -912 0 -912 0 -29 -29z m952 -113 c3 -5 4 -76 1
-158 -6 -177 -2 -198 36 -202 21 -2 27 -8 27 -28 0 -24 -2 -25 -75 -27 -41 -2
-97 -5 -125 -8 -59 -7 -103 15 -135 67 -25 42 -27 145 -4 194 30 63 101 92
177 71 24 -7 27 -5 27 18 0 19 -5 25 -23 25 -45 0 -64 44 -25 59 27 10 110 2
119 -11z m321 -104 c32 -17 55 -56 64 -112 5 -35 3 -42 -16 -52 -21 -11 -21
-13 -7 -22 52 -28 -15 -121 -96 -133 -62 -10 -91 -1 -135 39 -34 32 -36 38
-40 105 -5 81 6 116 48 156 47 45 117 52 182 19z m-974 7 c8 -1 12 -11 10 -28
-2 -22 -9 -29 -30 -31 -32 -4 -34 -16 -14 -97 14 -57 18 -52 40 55 19 86 23
95 52 104 39 12 63 -21 82 -111 9 -46 19 -83 23 -83 6 0 29 91 29 115 0 7 -13
15 -30 19 -24 4 -30 11 -30 31 0 27 -4 26 105 29 75 1 95 -6 95 -35 0 -14 -9
-21 -30 -25 -16 -4 -32 -14 -34 -23 -3 -9 -17 -61 -31 -116 -30 -111 -50 -141
-87 -132 -30 8 -44 36 -59 122 -7 36 -15 65 -19 65 -4 0 -14 -35 -23 -79 -20
-92 -42 -120 -85 -105 -25 9 -30 21 -61 136 -32 120 -35 126 -62 132 -23 4
-29 11 -29 30 0 15 6 26 17 28 16 3 139 2 171 -1z m1445 -10 c16 -16 -3 -44
-33 -51 -18 -4 -32 -28 -69 -121 -52 -131 -64 -149 -97 -149 -30 0 -42 19 -94
157 -38 101 -45 112 -69 115 -20 2 -27 9 -29 31 l-3 27 96 0 96 0 -3 -27 c-2
-20 -9 -29 -26 -31 -13 -2 -22 -9 -19 -15 2 -7 14 -40 27 -74 12 -35 26 -63
29 -63 4 0 19 33 34 74 26 74 26 75 5 78 -31 5 -47 36 -27 51 21 16 166 14
182 -2z"/>
<path d="M803 421 c-46 -44 -35 -163 19 -188 35 -17 75 -2 88 32 18 46 12 120
-11 149 -25 32 -66 34 -96 7z"/>
</g>
</svg>
